<svg xmlns="http://www.w3.org/2000/svg" viewBox="0 0 744.65 44.81"><defs><style>.cls-1{fill:#00a19c;stroke:#00a19c;stroke-width:3px;}</style></defs><title>fullBarreResult</title><g id="Calque_2" data-name="Calque 2"><g id="Calque_1-2" data-name="Calque 1"><g id="Groupe_42" data-name="Groupe 42"><path class="cls-1" d="M722.51,43.31a20.69,20.69,0,0,1-20.06-15.75H602.7a20.64,20.64,0,0,1-40.11,0H463.35a20.64,20.64,0,0,1-40.11,0H323.06a21,21,0,0,1-40.71,0H182.54a21,21,0,0,1-40.44,0h-100A20.76,20.76,0,0,1,22.15,42.79h0A20.65,20.65,0,1,1,42.2,17.24H142a21,21,0,0,1,40.72,0h99.81a21,21,0,0,1,40.43,0H423.38A20.76,20.76,0,0,1,443.29,2h0a20.75,20.75,0,0,1,19.92,15.22h99.52A20.76,20.76,0,0,1,582.64,2h0a20.75,20.75,0,0,1,19.92,15.22h100A20.77,20.77,0,0,1,722.51,2h0a20.72,20.72,0,0,1,20.64,20.3v.34A20.67,20.67,0,0,1,722.51,43.31ZM712.19,22.45v.21a10.32,10.32,0,0,0,20.64,0v-.21a10.36,10.36,0,0,0-10.32-10.11h0A10.36,10.36,0,0,0,712.19,22.45Zm-139.87,0v.21a10.33,10.33,0,0,0,20.65,0v-.21a10.38,10.38,0,0,0-10.33-10.11h0A10.38,10.38,0,0,0,572.32,22.45ZM433,22.45v.21a10.32,10.32,0,0,0,20.64,0v-.21a10.36,10.36,0,0,0-10.32-10.11h0A10.38,10.38,0,0,0,433,22.45Zm-140.9,0v.21a10.64,10.64,0,0,0,21.27,0v-.2a10.65,10.65,0,0,0-21.27,0Zm-140.38-.1a10.64,10.64,0,0,0,21.26,0v-.21a10.63,10.63,0,0,0-21.26,0ZM22.14,11.82a10.33,10.33,0,0,0,0,20.65h0A10.38,10.38,0,0,0,32.47,22.35v-.21A10.33,10.33,0,0,0,22.14,11.82Z"/></g></g></g></svg>