<svg xmlns="http://www.w3.org/2000/svg" viewBox="0 0 44.81 744.65"><defs><style>.cls-1{fill:none;stroke:#00a19c;stroke-width:3px;}</style></defs><title>transparencyBarre2</title><g id="Calque_2" data-name="Calque 2"><g id="Calque_1-2" data-name="Calque 1"><g id="Groupe_42" data-name="Groupe 42"><path class="cls-1" d="M1.5,722.51a20.7,20.7,0,0,1,15.74-20.06V602.7a20.65,20.65,0,0,1,0-40.11V463.35a20.65,20.65,0,0,1,0-40.11V323.06a21,21,0,0,1,0-40.71V182.54a21,21,0,0,1,0-40.44v-100A20.76,20.76,0,0,1,2,22.15H2A20.65,20.65,0,1,1,27.56,42.2V142a21,21,0,0,1,0,40.72v99.81a21,21,0,0,1,0,40.43V423.38a20.76,20.76,0,0,1,15.23,19.91h0a20.77,20.77,0,0,1-15.23,19.92v99.52a20.76,20.76,0,0,1,15.23,19.91h0a20.77,20.77,0,0,1-15.23,19.92v100a20.77,20.77,0,0,1,15.23,19.92h0a20.73,20.73,0,0,1-20.3,20.64h-.35A20.66,20.66,0,0,1,1.5,722.51Zm20.86-10.32h-.22a10.32,10.32,0,0,0,0,20.64h.22a10.36,10.36,0,0,0,10.11-10.32h0A10.36,10.36,0,0,0,22.36,712.19Zm0-139.87h-.22a10.33,10.33,0,0,0,0,20.65h.22a10.38,10.38,0,0,0,10.11-10.33h0A10.38,10.38,0,0,0,22.36,572.32Zm0-139.35h-.22a10.32,10.32,0,0,0,0,20.64h.22a10.36,10.36,0,0,0,10.11-10.32h0A10.38,10.38,0,0,0,22.36,433Zm0-140.9h-.22a10.64,10.64,0,0,0,0,21.27h.2a10.65,10.65,0,0,0,0-21.27Zm.09-140.38a10.64,10.64,0,0,0,0,21.26h.21a10.63,10.63,0,0,0,0-21.26ZM33,22.14a10.32,10.32,0,1,0-20.64,0h0A10.38,10.38,0,0,0,22.45,32.47h.21A10.33,10.33,0,0,0,33,22.14Z"/></g></g></g></svg>